<svg width="15" height="14" fill="none" xmlns="http://www.w3.org/2000/svg"><path d="M14.42 9.73H5.115l.468-.951 7.762-.014a.543.543 0 00.534-.447L14.954 2.3a.543.543 0 00-.532-.639L4.547 1.63l-.085-.397a.555.555 0 00-.54-.438H1.508a.552.552 0 100 1.103h1.967l.369 1.754.907 4.395-1.168 1.908a.546.546 0 00-.047.575.55.55 0 00.492.303h.981a1.604 1.604 0 001.281 2.567 1.604 1.604 0 001.282-2.567h2.517a1.604 1.604 0 102.884.964c0-.349-.115-.688-.322-.964h1.77a.552.552 0 00.552-.552.553.553 0 00-.553-.55zM4.776 2.716l8.997.03-.881 4.934-7.067.013-1.049-4.977zM6.29 12.29a.495.495 0 010-.988.495.495 0 010 .988zm5.08 0a.495.495 0 010-.988.495.495 0 010 .988z" fill="#fff"/></svg>