<svg width="15" height="13" fill="none" xmlns="http://www.w3.org/2000/svg"><path d="M14.42 8.967H5.115l.468-.951 7.762-.014a.543.543 0 00.534-.447l1.075-6.017a.542.542 0 00-.532-.64L4.547.866 4.462.469a.555.555 0 00-.54-.438H1.508a.552.552 0 100 1.103h1.967l.368 1.754.908 4.395L3.583 9.19a.546.546 0 00-.047.575.55.55 0 00.492.303h.981a1.604 1.604 0 001.281 2.567 1.604 1.604 0 001.282-2.567h2.517a1.604 1.604 0 001.281 2.567 1.604 1.604 0 001.281-2.567h1.77a.553.553 0 00.552-.552.554.554 0 00-.553-.55zM4.776 1.953l8.997.03-.881 4.934-7.067.013-1.049-4.977zm1.514 9.574a.495.495 0 010-.988.495.495 0 010 .988zm5.08 0a.495.495 0 010-.988.495.495 0 010 .988z" fill="#8C8C8C"/></svg>