<svg width="12" height="14" fill="none" xmlns="http://www.w3.org/2000/svg"><path d="M11.415 10.931a5.845 5.845 0 00-1.26-1.867 5.87 5.87 0 00-1.867-1.26l-.019-.007a3.874 3.874 0 10-4.537.002l-.02.007c-.7.296-1.327.719-1.866 1.26a5.87 5.87 0 00-1.72 4.025.125.125 0 00.124.128h.938a.125.125 0 00.125-.122 4.658 4.658 0 011.372-3.192A4.657 4.657 0 016 8.53c1.254 0 2.43.488 3.316 1.374a4.658 4.658 0 011.372 3.192.124.124 0 00.125.122h.937a.125.125 0 00.125-.128 5.823 5.823 0 00-.46-2.16zM6 7.344a2.67 2.67 0 01-1.9-.788 2.67 2.67 0 01-.787-1.9c0-.717.28-1.392.787-1.9A2.67 2.67 0 016 1.97c.718 0 1.393.28 1.9.787a2.67 2.67 0 01.788 1.9 2.67 2.67 0 01-.788 1.9 2.67 2.67 0 01-1.9.788z" fill="#fff"/></svg>